<svg width="24" height="24" viewBox="0 0 24 24" fill="none" xmlns="http://www.w3.org/2000/svg">
<path fill-rule="evenodd" clip-rule="evenodd" d="M8.18182 8.74806L12 6.83897V17.1136L8.18182 15.2045V8.74806ZM7.00192 7.20358L13.9091 3.75V20.2026L7.00193 16.749H3.40909C2.35473 16.749 1.5 15.8943 1.5 14.8399V9.11267C1.5 8.05831 2.35473 7.20358 3.40909 7.20358H7.00192ZM6.27268 9.11265H3.40905V14.8399H6.27268V9.11265ZM19.33 3.82136C21.2721 5.75338 22.5 8.70041 22.5 11.9763C22.5 15.2522 21.2721 18.1992 19.33 20.1313L17.8257 18.9278C19.492 17.373 20.5909 14.8516 20.5909 11.9763C20.5909 9.10105 19.492 6.57965 17.8257 5.02481L19.33 3.82136ZM18.6818 11.9763C18.6818 9.67521 17.7892 7.59722 16.3668 6.19195L14.861 7.39657C16.016 8.43657 16.7727 10.0917 16.7727 11.9763C16.7727 13.8609 16.016 15.516 14.861 16.556L16.3668 17.7607C17.7892 16.3554 18.6818 14.2774 18.6818 11.9763Z" fill="currentColor"/>
</svg>
